<?xml version="1.0" encoding="UTF-8" standalone="no"?><!DOCTYPE svg PUBLIC "-//W3C//DTD SVG 1.1//EN" "http://www.w3.org/Graphics/SVG/1.1/DTD/svg11.dtd"><svg width="100%" height="100%" viewBox="0 0 512 239" version="1.1" xmlns="http://www.w3.org/2000/svg" xmlns:xlink="http://www.w3.org/1999/xlink" xml:space="preserve" xmlns:serif="http://www.serif.com/" style="fill-rule:evenodd;clip-rule:evenodd;stroke-linejoin:round;stroke-miterlimit:1.41421;"><path d="M119.467,34.133c-47.053,0 -85.334,38.281 -85.334,85.334c0,47.052 38.281,85.333 85.334,85.333c47.052,0 85.333,-38.281 85.333,-85.333c0,-47.053 -38.281,-85.334 -85.333,-85.334Zm0,153.6c-37.641,0 -68.267,-30.626 -68.267,-68.266c0,-37.641 30.626,-68.267 68.267,-68.267c37.64,0 68.266,30.626 68.266,68.267c0,37.64 -30.626,68.266 -68.266,68.266Z" style="fill:#718b5d;fill-rule:nonzero;"/><path d="M392.533,0l-273.066,0c-65.878,0 -119.467,53.589 -119.467,119.467c0,65.877 53.589,119.466 119.467,119.466l273.066,0c65.878,0 119.467,-53.589 119.467,-119.466c0,-65.878 -53.589,-119.467 -119.467,-119.467Zm0,221.867l-273.066,0c-56.465,0 -102.4,-45.935 -102.4,-102.4c0,-56.465 45.935,-102.4 102.4,-102.4l273.066,0c56.465,0 102.4,45.935 102.4,102.4c0,56.465 -45.935,102.4 -102.4,102.4Z" style="fill:#718b5d;fill-rule:nonzero;"/><text x="209.763px" y="170.085px" style="font-family:'ArialMT', 'Arial', sans-serif;font-size:141.331px;fill:#4a5d3d;">O<tspan x="307.485px 382.785px " y="170.085px 170.085px ">FF</tspan></text></svg>