<?xml version="1.0" encoding="UTF-8" standalone="no"?><!DOCTYPE svg PUBLIC "-//W3C//DTD SVG 1.1//EN" "http://www.w3.org/Graphics/SVG/1.1/DTD/svg11.dtd"><svg width="100%" height="100%" viewBox="0 0 512 239" version="1.1" xmlns="http://www.w3.org/2000/svg" xmlns:xlink="http://www.w3.org/1999/xlink" xml:space="preserve" xmlns:serif="http://www.serif.com/" style="fill-rule:evenodd;clip-rule:evenodd;stroke-linejoin:round;stroke-miterlimit:1.41421;"><path d="M119.467,238.933l273.066,0c65.878,0 119.467,-53.589 119.467,-119.466c0,-65.878 -53.589,-119.467 -119.467,-119.467l-273.066,0c-65.878,0 -119.467,53.589 -119.467,119.467c0,65.877 53.589,119.466 119.467,119.466Zm273.066,-204.8c47.053,0 85.334,38.281 85.334,85.334c0,47.052 -38.281,85.333 -85.334,85.333c-47.052,0 -85.333,-38.281 -85.333,-85.333c0,-47.053 38.281,-85.334 85.333,-85.334Z" style="fill:#718b5d;fill-rule:nonzero;"/><ellipse cx="392.762" cy="119.467" rx="77.516" ry="77.555" style="fill:#4aae00;"/><text x="76.182px" y="170.085px" style="font-family:'ArialMT', 'Arial', sans-serif;font-size:141.331px;fill:#4a5d3d;">O<tspan x="180.617px " y="170.085px ">N</tspan></text></svg>